
<svg id="logo" viewBox="0 0 704 159" fill="none" xmlns="http://www.w3.org/2000/svg">

            <mask id="path-1-outside-1" maskUnits="userSpaceOnUse" x="-0.272003" y="0.415985" width="704" height="159"
                fill="black">
                <rect fill="white" x="-0.272003" y="0.415985" width="704" height="159" />
                <path d="M46.464 102.904L70.944 36.088H84.912L53.952 115H38.688L7.728 36.088H21.84L46.464 102.904Z" />
                <path
                    d="M136.975 34.648C142.927 34.648 148.303 35.944 153.103 38.536C157.903 41.032 161.647 44.824 164.335 49.912C167.119 55 168.511 61.192 168.511 68.488V115H155.551V70.36C155.551 62.488 153.583 56.488 149.647 52.36C145.711 48.136 140.335 46.024 133.519 46.024C126.607 46.024 121.087 48.184 116.959 52.504C112.927 56.824 110.911 63.112 110.911 71.368V115H97.8067V8.43999H110.911V47.32C113.503 43.288 117.055 40.168 121.567 37.96C126.175 35.752 131.311 34.648 136.975 34.648Z" />
                <path
                    d="M259.555 14.632C270.499 14.632 279.955 16.696 287.923 20.824C295.987 24.856 302.131 30.664 306.355 38.248C310.675 45.832 312.835 54.76 312.835 65.032C312.835 75.304 310.675 84.232 306.355 91.816C302.131 99.304 295.987 105.064 287.923 109.096C279.955 113.032 270.499 115 259.555 115H228.307V14.632H259.555ZM259.555 104.2C272.515 104.2 282.403 100.792 289.219 93.976C296.035 87.064 299.443 77.416 299.443 65.032C299.443 52.552 295.987 42.808 289.075 35.8C282.259 28.792 272.419 25.288 259.555 25.288H241.411V104.2H259.555Z" />
                <path
                    d="M402.119 72.52C402.119 75.016 401.975 77.656 401.687 80.44H338.615C339.095 88.216 341.735 94.312 346.535 98.728C351.431 103.048 357.335 105.208 364.247 105.208C369.911 105.208 374.615 103.912 378.359 101.32C382.199 98.632 384.887 95.08 386.423 90.664H400.535C398.423 98.248 394.199 104.44 387.863 109.24C381.527 113.944 373.655 116.296 364.247 116.296C356.759 116.296 350.039 114.616 344.087 111.256C338.231 107.896 333.623 103.144 330.263 97C326.903 90.76 325.223 83.56 325.223 75.4C325.223 67.24 326.855 60.088 330.119 53.944C333.383 47.8 337.943 43.096 343.799 39.832C349.751 36.472 356.567 34.792 364.247 34.792C371.735 34.792 378.359 36.424 384.119 39.688C389.879 42.952 394.295 47.464 397.367 53.224C400.535 58.888 402.119 65.32 402.119 72.52ZM388.583 69.784C388.583 64.792 387.479 60.52 385.271 56.968C383.063 53.32 380.039 50.584 376.199 48.76C372.455 46.84 368.279 45.88 363.671 45.88C357.047 45.88 351.383 47.992 346.679 52.216C342.071 56.44 339.431 62.296 338.759 69.784H388.583Z" />
                <path
                    d="M447.352 116.296C441.304 116.296 435.88 115.288 431.08 113.272C426.28 111.16 422.488 108.28 419.704 104.632C416.92 100.888 415.384 96.616 415.096 91.816H428.632C429.016 95.752 430.84 98.968 434.104 101.464C437.464 103.96 441.832 105.208 447.208 105.208C452.2 105.208 456.136 104.104 459.016 101.896C461.896 99.688 463.336 96.904 463.336 93.544C463.336 90.088 461.8 87.544 458.728 85.912C455.656 84.184 450.904 82.504 444.472 80.872C438.616 79.336 433.816 77.8 430.072 76.264C426.424 74.632 423.256 72.28 420.568 69.208C417.976 66.04 416.68 61.912 416.68 56.824C416.68 52.792 417.88 49.096 420.28 45.736C422.68 42.376 426.088 39.736 430.504 37.816C434.92 35.8 439.96 34.792 445.624 34.792C454.36 34.792 461.416 37 466.792 41.416C472.168 45.832 475.048 51.88 475.432 59.56H462.328C462.04 55.432 460.36 52.12 457.288 49.624C454.312 47.128 450.28 45.88 445.192 45.88C440.488 45.88 436.744 46.888 433.96 48.904C431.176 50.92 429.784 53.56 429.784 56.824C429.784 59.416 430.6 61.576 432.232 63.304C433.96 64.936 436.072 66.28 438.568 67.336C441.16 68.296 444.712 69.4 449.224 70.648C454.888 72.184 459.496 73.72 463.048 75.256C466.6 76.696 469.624 78.904 472.12 81.88C474.712 84.856 476.056 88.744 476.152 93.544C476.152 97.864 474.952 101.752 472.552 105.208C470.152 108.664 466.744 111.4 462.328 113.416C458.008 115.336 453.016 116.296 447.352 116.296Z" />
                <path
                    d="M501.418 23.272C498.922 23.272 496.81 22.408 495.082 20.68C493.354 18.952 492.491 16.84 492.491 14.344C492.491 11.848 493.354 9.73599 495.082 8.00799C496.81 6.27999 498.922 5.41599 501.418 5.41599C503.818 5.41599 505.834 6.27999 507.466 8.00799C509.194 9.73599 510.059 11.848 510.059 14.344C510.059 16.84 509.194 18.952 507.466 20.68C505.834 22.408 503.818 23.272 501.418 23.272ZM507.755 36.088V115H494.651V36.088H507.755Z" />
                <path
                    d="M562.632 34.792C569.448 34.792 575.4 36.28 580.488 39.256C585.672 42.232 589.512 45.976 592.008 50.488V36.088H605.256V116.728C605.256 123.928 603.72 130.312 600.648 135.88C597.576 141.544 593.16 145.96 587.4 149.128C581.736 152.296 575.112 153.88 567.528 153.88C557.16 153.88 548.52 151.432 541.608 146.536C534.696 141.64 530.616 134.968 529.368 126.52H542.328C543.768 131.32 546.744 135.16 551.256 138.04C555.768 141.016 561.192 142.504 567.528 142.504C574.728 142.504 580.584 140.248 585.096 135.736C589.704 131.224 592.008 124.888 592.008 116.728V100.168C589.416 104.776 585.576 108.616 580.488 111.688C575.4 114.76 569.448 116.296 562.632 116.296C555.624 116.296 549.24 114.568 543.48 111.112C537.816 107.656 533.352 102.808 530.088 96.568C526.824 90.328 525.192 83.224 525.192 75.256C525.192 67.192 526.824 60.136 530.088 54.088C533.352 47.944 537.816 43.192 543.48 39.832C549.24 36.472 555.624 34.792 562.632 34.792ZM592.008 75.4C592.008 69.448 590.808 64.264 588.408 59.848C586.008 55.432 582.744 52.072 578.616 49.768C574.584 47.368 570.12 46.168 565.224 46.168C560.328 46.168 555.864 47.32 551.832 49.624C547.8 51.928 544.584 55.288 542.184 59.704C539.784 64.12 538.584 69.304 538.584 75.256C538.584 81.304 539.784 86.584 542.184 91.096C544.584 95.512 547.8 98.92 551.832 101.32C555.864 103.624 560.328 104.776 565.224 104.776C570.12 104.776 574.584 103.624 578.616 101.32C582.744 98.92 586.008 95.512 588.408 91.096C590.808 86.584 592.008 81.352 592.008 75.4Z" />
                <path
                    d="M665.848 34.648C675.448 34.648 683.224 37.576 689.176 43.432C695.128 49.192 698.104 57.544 698.104 68.488V115H685.145V70.36C685.145 62.488 683.176 56.488 679.24 52.36C675.304 48.136 669.928 46.024 663.112 46.024C656.2 46.024 650.68 48.184 646.552 52.504C642.52 56.824 640.504 63.112 640.504 71.368V115H627.4V36.088H640.504V47.32C643.096 43.288 646.6 40.168 651.016 37.96C655.528 35.752 660.472 34.648 665.848 34.648Z" />
            </mask>
            
            <path d="M46.464 102.904L70.944 36.088H84.912L53.952 115H38.688L7.728 36.088H21.84L46.464 102.904Z"
                stroke="#5b8c5a" stroke-width="10" mask="url(#path-1-outside-1)" />
            <path
                d="M136.975 34.648C142.927 34.648 148.303 35.944 153.103 38.536C157.903 41.032 161.647 44.824 164.335 49.912C167.119 55 168.511 61.192 168.511 68.488V115H155.551V70.36C155.551 62.488 153.583 56.488 149.647 52.36C145.711 48.136 140.335 46.024 133.519 46.024C126.607 46.024 121.087 48.184 116.959 52.504C112.927 56.824 110.911 63.112 110.911 71.368V115H97.8067V8.43999H110.911V47.32C113.503 43.288 117.055 40.168 121.567 37.96C126.175 35.752 131.311 34.648 136.975 34.648Z"
                stroke="#5b8c5a" stroke-width="10" mask="url(#path-1-outside-1)" />
            <path
                d="M259.555 14.632C270.499 14.632 279.955 16.696 287.923 20.824C295.987 24.856 302.131 30.664 306.355 38.248C310.675 45.832 312.835 54.76 312.835 65.032C312.835 75.304 310.675 84.232 306.355 91.816C302.131 99.304 295.987 105.064 287.923 109.096C279.955 113.032 270.499 115 259.555 115H228.307V14.632H259.555ZM259.555 104.2C272.515 104.2 282.403 100.792 289.219 93.976C296.035 87.064 299.443 77.416 299.443 65.032C299.443 52.552 295.987 42.808 289.075 35.8C282.259 28.792 272.419 25.288 259.555 25.288H241.411V104.2H259.555Z"
                stroke="white" stroke-width="10" mask="url(#path-1-outside-1)" />
            <path
                d="M402.119 72.52C402.119 75.016 401.975 77.656 401.687 80.44H338.615C339.095 88.216 341.735 94.312 346.535 98.728C351.431 103.048 357.335 105.208 364.247 105.208C369.911 105.208 374.615 103.912 378.359 101.32C382.199 98.632 384.887 95.08 386.423 90.664H400.535C398.423 98.248 394.199 104.44 387.863 109.24C381.527 113.944 373.655 116.296 364.247 116.296C356.759 116.296 350.039 114.616 344.087 111.256C338.231 107.896 333.623 103.144 330.263 97C326.903 90.76 325.223 83.56 325.223 75.4C325.223 67.24 326.855 60.088 330.119 53.944C333.383 47.8 337.943 43.096 343.799 39.832C349.751 36.472 356.567 34.792 364.247 34.792C371.735 34.792 378.359 36.424 384.119 39.688C389.879 42.952 394.295 47.464 397.367 53.224C400.535 58.888 402.119 65.32 402.119 72.52ZM388.583 69.784C388.583 64.792 387.479 60.52 385.271 56.968C383.063 53.32 380.039 50.584 376.199 48.76C372.455 46.84 368.279 45.88 363.671 45.88C357.047 45.88 351.383 47.992 346.679 52.216C342.071 56.44 339.431 62.296 338.759 69.784H388.583Z"
                stroke="white" stroke-width="10" mask="url(#path-1-outside-1)" />
            <path
                d="M447.352 116.296C441.304 116.296 435.88 115.288 431.08 113.272C426.28 111.16 422.488 108.28 419.704 104.632C416.92 100.888 415.384 96.616 415.096 91.816H428.632C429.016 95.752 430.84 98.968 434.104 101.464C437.464 103.96 441.832 105.208 447.208 105.208C452.2 105.208 456.136 104.104 459.016 101.896C461.896 99.688 463.336 96.904 463.336 93.544C463.336 90.088 461.8 87.544 458.728 85.912C455.656 84.184 450.904 82.504 444.472 80.872C438.616 79.336 433.816 77.8 430.072 76.264C426.424 74.632 423.256 72.28 420.568 69.208C417.976 66.04 416.68 61.912 416.68 56.824C416.68 52.792 417.88 49.096 420.28 45.736C422.68 42.376 426.088 39.736 430.504 37.816C434.92 35.8 439.96 34.792 445.624 34.792C454.36 34.792 461.416 37 466.792 41.416C472.168 45.832 475.048 51.88 475.432 59.56H462.328C462.04 55.432 460.36 52.12 457.288 49.624C454.312 47.128 450.28 45.88 445.192 45.88C440.488 45.88 436.744 46.888 433.96 48.904C431.176 50.92 429.784 53.56 429.784 56.824C429.784 59.416 430.6 61.576 432.232 63.304C433.96 64.936 436.072 66.28 438.568 67.336C441.16 68.296 444.712 69.4 449.224 70.648C454.888 72.184 459.496 73.72 463.048 75.256C466.6 76.696 469.624 78.904 472.12 81.88C474.712 84.856 476.056 88.744 476.152 93.544C476.152 97.864 474.952 101.752 472.552 105.208C470.152 108.664 466.744 111.4 462.328 113.416C458.008 115.336 453.016 116.296 447.352 116.296Z"
                stroke="white" stroke-width="10" mask="url(#path-1-outside-1)" />
            <path
                d="M501.418 23.272C498.922 23.272 496.81 22.408 495.082 20.68C493.354 18.952 492.491 16.84 492.491 14.344C492.491 11.848 493.354 9.73599 495.082 8.00799C496.81 6.27999 498.922 5.41599 501.418 5.41599C503.818 5.41599 505.834 6.27999 507.466 8.00799C509.194 9.73599 510.059 11.848 510.059 14.344C510.059 16.84 509.194 18.952 507.466 20.68C505.834 22.408 503.818 23.272 501.418 23.272ZM507.755 36.088V115H494.651V36.088H507.755Z"
                stroke="white" stroke-width="10" mask="url(#path-1-outside-1)" />
            <path
                d="M562.632 34.792C569.448 34.792 575.4 36.28 580.488 39.256C585.672 42.232 589.512 45.976 592.008 50.488V36.088H605.256V116.728C605.256 123.928 603.72 130.312 600.648 135.88C597.576 141.544 593.16 145.96 587.4 149.128C581.736 152.296 575.112 153.88 567.528 153.88C557.16 153.88 548.52 151.432 541.608 146.536C534.696 141.64 530.616 134.968 529.368 126.52H542.328C543.768 131.32 546.744 135.16 551.256 138.04C555.768 141.016 561.192 142.504 567.528 142.504C574.728 142.504 580.584 140.248 585.096 135.736C589.704 131.224 592.008 124.888 592.008 116.728V100.168C589.416 104.776 585.576 108.616 580.488 111.688C575.4 114.76 569.448 116.296 562.632 116.296C555.624 116.296 549.24 114.568 543.48 111.112C537.816 107.656 533.352 102.808 530.088 96.568C526.824 90.328 525.192 83.224 525.192 75.256C525.192 67.192 526.824 60.136 530.088 54.088C533.352 47.944 537.816 43.192 543.48 39.832C549.24 36.472 555.624 34.792 562.632 34.792ZM592.008 75.4C592.008 69.448 590.808 64.264 588.408 59.848C586.008 55.432 582.744 52.072 578.616 49.768C574.584 47.368 570.12 46.168 565.224 46.168C560.328 46.168 555.864 47.32 551.832 49.624C547.8 51.928 544.584 55.288 542.184 59.704C539.784 64.12 538.584 69.304 538.584 75.256C538.584 81.304 539.784 86.584 542.184 91.096C544.584 95.512 547.8 98.92 551.832 101.32C555.864 103.624 560.328 104.776 565.224 104.776C570.12 104.776 574.584 103.624 578.616 101.32C582.744 98.92 586.008 95.512 588.408 91.096C590.808 86.584 592.008 81.352 592.008 75.4Z"
                stroke="white" stroke-width="10" mask="url(#path-1-outside-1)" />
            <path
                d="M665.848 34.648C675.448 34.648 683.224 37.576 689.176 43.432C695.128 49.192 698.104 57.544 698.104 68.488V115H685.145V70.36C685.145 62.488 683.176 56.488 679.24 52.36C675.304 48.136 669.928 46.024 663.112 46.024C656.2 46.024 650.68 48.184 646.552 52.504C642.52 56.824 640.504 63.112 640.504 71.368V115H627.4V36.088H640.504V47.32C643.096 43.288 646.6 40.168 651.016 37.96C655.528 35.752 660.472 34.648 665.848 34.648Z"
                stroke="white" stroke-width="10" mask="url(#path-1-outside-1)" />
                <style>

path:nth-child(2) {
    stroke-dasharray: 572px;
    stroke-dashoffset: 572px;
    step-star: 5s;
    animation: line-anim 2s ease forwards 1.8s, fill 3s ease forwards 1.8s;
}

path:nth-child(3) {
    stroke-dasharray: 479px;
    stroke-dashoffset: 479px;
    animation: line-anim 2s ease forwards 1.8s, fill 3s ease forwards 1.8s;
}

path:nth-child(4) {
    stroke-dasharray: 572px;
    stroke-dashoffset: 572px;
    animation: line-anim 2s ease infinite alternate forwards, fill2 1s ease forwards 5s;
}

path:nth-child(5) {
    stroke-dasharray: 463px;
    stroke-dashoffset: 463px;
    animation: line-anim 2s ease infinite alternate forwards 0.3s, fill2 1s ease forwards 5s;
}

path:nth-child(6) {
    animation: line-anim 2s ease infinite alternate forwards 0.6s, fill2 1s ease forwards 5s;
    stroke-dasharray: 495px;
    stroke-dashoffset: 495px;
}

path:nth-child(7) {
    stroke-dasharray: 604px;
    animation: line-anim 2s ease infinite alternate forwards 0.9s, fill2 1s ease forwards 5s;
    stroke-dashoffset: 604px;
}

path:nth-child(8) {
    stroke-dasharray: 615px;
    stroke-dashoffset: 615px;
    animation: line-anim 2s ease infinite alternate forwards 1.2s, fill2 1s ease forwards 5s;
}

path:nth-child(9) {
    stroke-dasharray: 425px;
    stroke-dashoffset: 425px;
    animation: line-anim 2s ease infinite alternate forwards 1.5s, fill2 1s ease forwards 5s;
}

@keyframes line-anim {
    to {
        stroke-dashoffset: 0;
    }
}

@keyframes fill {
    from {
        fill: transparent;
    }
    to {
        fill: #5b8c5a;
    }
}

@keyframes fill2 {
    from {
        fill: transparent;
    }
    to {
        fill: #596157;
        stroke-dasharray: 150,5,5,10;
    }
}
</style>
        </svg>